# xmcd
#
# Track frame offsets: 
#        150
#        11968
#        25118
#        38213
#        49540
#        63720
#        73620
#        86835
#        100373
#        114283
#        126340
#        144205
#
# Disc length: 2095 seconds
#
# Revision: 0
# Processed by: cddbd v1.5.1PL2 Copyright (c) Steve Scherf et al.
# Submitted via: ExactAudioCopy v0.95b3
#
DISCID=a5082d0c
DTITLE=Albert King - The Big Blues
DYEAR=1900
DGENRE=Blues
TTITLE0=This Funny Feeling
TTITLE1=Let's Have A Natural Ball
TTITLE2=What Can I Do To Change Your Mind?
TTITLE3=I Get Evil
TTITLE4=Had You Told It Like It Was (It Wouldn't Be Like It Is)
TTITLE5=This Morning
TTITLE6=I Walked All Night Long
TTITLE7=Don't Throw Your Love On Me So Strong
TTITLE8=Travellin' To California
TTITLE9=I've Made Nights By Myself
TTITLE10=Ooh-ee Baby
TTITLE11=Dyna Flow
EXTD=
EXTT0=
EXTT1=
EXTT2=
EXTT3=
EXTT4=
EXTT5=
EXTT6=
EXTT7=
EXTT8=
EXTT9=
EXTT10=
EXTT11=
PLAYORDER=
